<?xml version="1.0" encoding="UTF-8"?>
<!-- Generator: visioncortex VTracer 0.6.12 -->
<svg version="1.1" xmlns="http://www.w3.org/2000/svg" width="54" height="47">
<path d="M0 0 C17.82 0 35.64 0 54 0 C54 14.85 54 29.7 54 45 C36.18 45 18.36 45 0 45 C0 30.15 0 15.3 0 0 Z " fill="#FCFCFC" transform="translate(0,0)"/>
<path d="M0 0 C3.63 0 7.26 0 11 0 C11 14.85 11 29.7 11 45 C-5.17 45 -21.34 45 -38 45 C-34.165 40.526 -30.46 36.323 -26.312 32.188 C-25.381 31.253 -24.449 30.318 -23.488 29.355 C-21 27 -21 27 -18 25 C-15.938 25.188 -15.938 25.188 -14 26 C-13.34 26.99 -12.68 27.98 -12 29 C-9.875 29.688 -9.875 29.688 -8 30 C-8.33 28.68 -8.66 27.36 -9 26 C-7.68 26 -6.36 26 -5 26 C-5.165 25.505 -5.165 25.505 -6 23 C-4.35 23.33 -2.7 23.66 -1 24 C-0.67 22.68 -0.34 21.36 0 20 C0.66 20 1.32 20 2 20 C1.835 19.34 1.835 19.34 1 16 C1.99 15.67 2.98 15.34 4 15 C4 14.01 4 13.02 4 12 C3.34 11.67 2.68 11.34 2 11 C2 10.34 2 9.68 2 9 C2.66 9 3.32 9 4 9 C3.835 8.175 3.835 8.175 3 4 C2.01 4 1.02 4 0 4 C-0.165 3.505 -0.165 3.505 -1 1 C-0.67 0.67 -0.34 0.34 0 0 Z " fill="#FCFCFC" transform="translate(43,0)"/>
<path d="M0 0 C2.97 0 5.94 0 9 0 C9.165 0.495 9.165 0.495 10 3 C10.99 3 11.98 3 13 3 C13 3.66 13 4.32 13 5 C13.66 5.33 14.32 5.66 15 6 C14.825 6.289 14.825 6.289 13.938 7.75 C12.828 10.412 13.282 11.307 14 14 C13.34 14.66 12.68 15.32 12 16 C12 16.99 12 17.98 12 19 C11.67 19.165 11.67 19.165 10 20 C9.835 20.495 9.835 20.495 9 23 C7.68 23 6.36 23 5 23 C5.165 23.495 5.165 23.495 6 26 C4.68 26 3.36 26 2 26 C2 26.99 2 27.98 2 29 C-0.375 28.688 -0.375 28.688 -3 28 C-3.66 27.01 -4.32 26.02 -5 25 C-8.301 25.595 -10.084 26.637 -12.562 28.875 C-13.247 29.492 -13.931 30.11 -14.637 30.746 C-17.943 33.899 -21.156 37.145 -24.319 40.443 C-25.509 41.665 -26.751 42.837 -28 44 C-28.66 44 -29.32 44 -30 44 C-28.627 40.901 -27.066 38.847 -24.629 36.504 C-23.972 35.863 -23.315 35.221 -22.639 34.561 C-21.259 33.232 -19.878 31.904 -18.498 30.576 C-15.107 27.265 -12.17 24.282 -10 20 C-10.825 19.587 -11.65 19.175 -12.5 18.75 C-13.325 18.172 -14.15 17.595 -15 17 C-15 15.68 -15 14.36 -15 13 C-14.01 13 -13.02 13 -12 13 C-12.66 11.68 -13.32 10.36 -14 9 C-13.361 8.876 -12.721 8.752 -12.062 8.625 C-11.382 8.419 -10.701 8.213 -10 8 C-9.67 7.34 -9.34 6.68 -9 6 C-8.01 6 -7.02 6 -6 6 C-5.67 4.35 -5.34 2.7 -5 1 C-4.175 1.165 -4.175 1.165 0 2 C0 1.34 0 0.68 0 0 Z " fill="#141517" transform="translate(33,1)"/>
<path d="M0 0 C0.33 0.66 0.66 1.32 1 2 C1.66 2.33 2.32 2.66 3 3 C2.825 3.289 2.825 3.289 1.938 4.75 C0.828 7.412 1.282 8.307 2 11 C1.34 11.66 0.68 12.32 0 13 C0 13.99 0 14.98 0 16 C-0.66 16.33 -1.32 16.66 -2 17 C-2.33 17.99 -2.66 18.98 -3 20 C-4.32 20 -5.64 20 -7 20 C-6.67 20.99 -6.34 21.98 -6 23 C-7.32 23 -8.64 23 -10 23 C-10 23.99 -10 24.98 -10 26 C-12.437 25.625 -12.437 25.625 -15 25 C-15.33 24.34 -15.66 23.68 -16 23 C-15.01 23 -14.02 23 -13 23 C-13.66 22.01 -14.32 21.02 -15 20 C-13.68 20.33 -12.36 20.66 -11 21 C-11 20.34 -11 19.68 -11 19 C-12.32 18.67 -13.64 18.34 -15 18 C-14.01 18 -13.02 18 -12 18 C-12 16.68 -12 15.36 -12 14 C-9.69 14 -7.38 14 -5 14 C-6.65 13.67 -8.3 13.34 -10 13 C-10 12.01 -10 11.02 -10 10 C-8.68 9.67 -7.36 9.34 -6 9 C-6.33 8.34 -6.66 7.68 -7 7 C-6.402 6.773 -5.804 6.546 -5.188 6.312 C-2.436 4.662 -1.475 2.803 0 0 Z " fill="#434344" transform="translate(45,4)"/>
<path d="M0 0 C2.97 0 5.94 0 9 0 C8.34 1.32 7.68 2.64 7 4 C7 3.34 7 2.68 7 2 C5 3 5 3 4.148 5.066 C3.893 5.89 3.638 6.714 3.375 7.562 C3.115 8.389 2.854 9.215 2.586 10.066 C2.393 10.704 2.199 11.343 2 12 C1.01 12 0.02 12 -1 12 C-1 10.35 -1 8.7 -1 7 C-1.99 7 -2.98 7 -4 7 C-4.33 8.32 -4.66 9.64 -5 11 C-5.33 10.67 -5.66 10.34 -6 10 C-5.911 8.475 -5.755 6.953 -5.562 5.438 C-5.461 4.611 -5.359 3.785 -5.254 2.934 C-5.17 2.296 -5.086 1.657 -5 1 C-3.35 1.33 -1.7 1.66 0 2 C0 1.34 0 0.68 0 0 Z " fill="#3D3E3F" transform="translate(33,1)"/>
<path d="M0 0 C0.33 0.66 0.66 1.32 1 2 C1.66 2 2.32 2 3 2 C1.789 5.448 0.615 7.494 -2 10 C-3.188 12.187 -3.188 12.187 -4 14 C-3.34 14 -2.68 14 -2 14 C-1.67 14.99 -1.34 15.98 -1 17 C-3.64 16.67 -6.28 16.34 -9 16 C-9.75 13.75 -9.75 13.75 -10 11 C-8.712 9.623 -7.372 8.294 -6 7 C-5.67 5.948 -5.34 4.896 -5 3.812 C-4.835 3.348 -4.835 3.348 -4 1 C-1.875 0.125 -1.875 0.125 0 0 Z " fill="#0D0E11" transform="translate(42,2)"/>
<path d="M0 0 C0.99 0.33 1.98 0.66 3 1 C3.33 3.97 3.66 6.94 4 10 C3.01 10 2.02 10 1 10 C0.67 10.66 0.34 11.32 0 12 C-0.33 12.33 -0.66 12.66 -1 13 C-2.32 12.34 -3.64 11.68 -5 11 C-5 9.68 -5 8.36 -5 7 C-4.01 7 -3.02 7 -2 7 C-2.66 5.68 -3.32 4.36 -4 3 C-2.68 2.67 -1.36 2.34 0 2 C0 1.34 0 0.68 0 0 Z " fill="#575859" transform="translate(23,7)"/>
<path d="M0 0 C0.66 0.33 1.32 0.66 2 1 C1.67 1.99 1.34 2.98 1 4 C-0.32 4 -1.64 4 -3 4 C-2.67 4.99 -2.34 5.98 -2 7 C-3.32 7 -4.64 7 -6 7 C-6 7.99 -6 8.98 -6 10 C-8.438 9.625 -8.438 9.625 -11 9 C-11.33 8.34 -11.66 7.68 -12 7 C-11.01 7 -10.02 7 -9 7 C-9.66 6.01 -10.32 5.02 -11 4 C-10.34 4.165 -10.34 4.165 -7 5 C-7 4.34 -7 3.68 -7 3 C-5.845 2.835 -5.845 2.835 0 2 C0 1.34 0 0.68 0 0 Z " fill="#6C6C6D" transform="translate(41,20)"/>
<path d="M0 0 C0.33 0 0.66 0 1 0 C1.393 4.449 0.153 7.142 -2 11 C-2.99 11 -3.98 11 -5 11 C-5 10.34 -5 9.68 -5 9 C-5.66 8.67 -6.32 8.34 -7 8 C-6.34 8 -5.68 8 -5 8 C-5.66 5.69 -6.32 3.38 -7 1 C-6.34 1 -5.68 1 -5 1 C-4.67 2.32 -4.34 3.64 -4 5 C-3.67 4.01 -3.34 3.02 -3 2 C-2.01 2 -1.02 2 0 2 C0 1.34 0 0.68 0 0 Z " fill="#131315" transform="translate(32,6)"/>
<path d="M0 0 C2.97 0 5.94 0 9 0 C8.34 1.32 7.68 2.64 7 4 C7 3.34 7 2.68 7 2 C6.67 2.165 6.67 2.165 5 3 C4.269 5.314 3.599 7.648 3 10 C2 7 2 7 2 4 C1.01 4 0.02 4 -1 4 C-1.33 4.66 -1.66 5.32 -2 6 C-2.66 6 -3.32 6 -4 6 C-3.67 4.68 -3.34 3.36 -3 2 C-3.66 1.67 -4.32 1.34 -5 1 C-4.175 1.165 -4.175 1.165 0 2 C0 1.34 0 0.68 0 0 Z " fill="#707071" transform="translate(33,1)"/>
<path d="M0 0 C0.33 0.66 0.66 1.32 1 2 C1.66 2.33 2.32 2.66 3 3 C2.649 3.578 2.299 4.155 1.938 4.75 C0.851 7.358 1.069 8.394 2 11 C1.67 10.34 1.34 9.68 1 9 C-1.31 9.33 -3.62 9.66 -6 10 C-6.33 9.01 -6.66 8.02 -7 7 C-6.402 6.773 -5.804 6.546 -5.188 6.312 C-2.436 4.662 -1.475 2.803 0 0 Z " fill="#5A5A5B" transform="translate(45,4)"/>
<path d="M0 0 C0.99 0.33 1.98 0.66 3 1 C3.33 2.98 3.66 4.96 4 7 C1 8 1 8 -1.688 6.688 C-2.451 6.131 -3.214 5.574 -4 5 C-4 4.34 -4 3.68 -4 3 C-2.68 2.67 -1.36 2.34 0 2 C0 1.34 0 0.68 0 0 Z " fill="#6B6C6C" transform="translate(23,7)"/>
<path d="M0 0 C0.99 0.165 0.99 0.165 6 1 C6.33 1.99 6.66 2.98 7 4 C3.7 4.33 0.4 4.66 -3 5 C-2.01 4.67 -1.02 4.34 0 4 C0 2.68 0 1.36 0 0 Z " fill="#4A4B4C" transform="translate(33,18)"/>
<path d="M0 0 C1.32 0.66 2.64 1.32 4 2 C3.01 2 2.02 2 1 2 C1.33 3.65 1.66 5.3 2 7 C0.35 6.67 -1.3 6.34 -3 6 C-3 4.68 -3 3.36 -3 2 C-2.01 1.34 -1.02 0.68 0 0 Z " fill="#1C1D1E" transform="translate(32,18)"/>
<path d="M0 0 C0.66 0 1.32 0 2 0 C2.99 3.3 3.98 6.6 5 10 C4.01 10 3.02 10 2 10 C2 9.34 2 8.68 2 8 C1.34 7.67 0.68 7.34 0 7 C0.66 7 1.32 7 2 7 C1.34 4.69 0.68 2.38 0 0 Z " fill="#222324" transform="translate(25,7)"/>
<path d="M0 0 C0.99 0.33 1.98 0.66 3 1 C3.33 2.98 3.66 4.96 4 7 C3.01 6.67 2.02 6.34 1 6 C0.67 4.02 0.34 2.04 0 0 Z " fill="#5B5B5C" transform="translate(23,7)"/>
<path d="M0 0 C0.99 0.33 1.98 0.66 3 1 C2.67 1.99 2.34 2.98 2 4 C1.01 3.67 0.02 3.34 -1 3 C-0.67 2.01 -0.34 1.02 0 0 Z " fill="#27282A" transform="translate(22,23)"/>
<path d="M0 0 C1.32 0.66 2.64 1.32 4 2 C3.01 2 2.02 2 1 2 C0.67 2.66 0.34 3.32 0 4 C-0.66 3.34 -1.32 2.68 -2 2 C-1.34 1.34 -0.68 0.68 0 0 Z " fill="#2D2D2F" transform="translate(32,18)"/>
<path d="M0 0 C0.33 0.66 0.66 1.32 1 2 C1.66 2 2.32 2 3 2 C2.67 2.99 2.34 3.98 2 5 C1.01 4.01 0.02 3.02 -1 2 C-0.67 1.34 -0.34 0.68 0 0 Z " fill="#2D2D2E" transform="translate(42,2)"/>
<path d="M0 0 C-0.66 1.32 -1.32 2.64 -2 4 C-2 3.34 -2 2.68 -2 2 C-2.99 1.67 -3.98 1.34 -5 1 C-3 0 -3 0 0 0 Z " fill="#808080" transform="translate(42,1)"/>
<path d="M0 0 C1.32 0 2.64 0 4 0 C4 0.99 4 1.98 4 3 C2.68 2.67 1.36 2.34 0 2 C0 1.34 0 0.68 0 0 Z " fill="#F6F6F6" transform="translate(29,0)"/>
<path d="M0 0 C0.66 0 1.32 0 2 0 C1.34 1.32 0.68 2.64 0 4 C-0.66 3.34 -1.32 2.68 -2 2 C-1.34 1.34 -0.68 0.68 0 0 Z " fill="#3F3F40" transform="translate(20,26)"/>
<path d="M0 0 C2.062 0.437 2.062 0.437 4 1 C3.01 1.66 2.02 2.32 1 3 C0.34 2.34 -0.32 1.68 -1 1 C-0.67 0.67 -0.34 0.34 0 0 Z " fill="#BBBBBB" transform="translate(23,5)"/>
<path d="M0 0 C0.66 0 1.32 0 2 0 C1.67 0.99 1.34 1.98 1 3 C0.34 3 -0.32 3 -1 3 C-0.67 2.01 -0.34 1.02 0 0 Z " fill="#292A2B" transform="translate(4,42)"/>
<path d="M0 0 C0.99 0.33 1.98 0.66 3 1 C2.34 1.66 1.68 2.32 1 3 C0.67 2.01 0.34 1.02 0 0 Z " fill="#919191" transform="translate(19,10)"/>
<path d="M0 0 C0.66 0.66 1.32 1.32 2 2 C1.01 2 0.02 2 -1 2 C-0.67 1.34 -0.34 0.68 0 0 Z " fill="#3E3E40" transform="translate(11,35)"/>
</svg>
