<?xml version="1.0" encoding="UTF-8"?>
<!-- Generator: visioncortex VTracer 0.6.12 -->
<svg version="1.1" xmlns="http://www.w3.org/2000/svg" width="55" height="48">
<path d="M0 0 C18.15 0 36.3 0 55 0 C55 14.52 55 29.04 55 44 C36.85 44 18.7 44 0 44 C0 29.48 0 14.96 0 0 Z " fill="#E12F36" transform="translate(0,1)"/>
<path d="M0 0 C18.15 0 36.3 0 55 0 C55 14.52 55 29.04 55 44 C36.85 44 18.7 44 0 44 C0 29.48 0 14.96 0 0 Z M8 12 C5.05 16.874 5.375 22.65 6.395 28.113 C8.178 34.041 11.991 37.543 17 41 C22.137 43.461 27.618 44.062 33.078 42.348 C39.197 39.627 43.056 35.357 46.375 29.625 C47.905 23.198 47.606 17.666 44.336 11.855 C41.061 7.307 36.524 3.315 31 2 C21.014 0.96 14.325 4.342 8 12 Z " fill="#FEFBFB" transform="translate(0,1)"/>
<path d="M0 0 C5.874 1.762 8.598 4.097 12 9 C13.477 12.521 13.26 16.23 13 20 C11.5 23.437 11.5 23.437 10 26 C6.953 24.984 5.886 24.509 4 22 C3.707 19.52 3.707 19.52 3.812 16.812 C3.84 15.911 3.867 15.01 3.895 14.082 C3.929 13.395 3.964 12.708 4 12 C3.01 12 2.02 12 1 12 C1 9.69 1 7.38 1 5 C0.01 5 -0.98 5 -2 5 C-2 4.01 -2 3.02 -2 2 C-2.99 2 -3.98 2 -5 2 C-5 2.66 -5 3.32 -5 4 C-5.99 4 -6.98 4 -8 4 C-8 5.32 -8 6.64 -8 8 C-8.66 8 -9.32 8 -10 8 C-11.625 5.5 -11.625 5.5 -13 3 C-9.242 -0.921 -5.065 -0.617 0 0 Z " fill="#F7F0F0" transform="translate(30,7)"/>
<path d="M0 0 C3.875 1.875 3.875 1.875 5 3 C5.17 6.094 5.297 9.18 5.342 12.277 C5.545 17.08 6.515 19.673 10 23 C13.601 23.6 15.279 23.456 18.375 21.5 C18.911 21.005 19.448 20.51 20 20 C21.32 20.66 22.64 21.32 24 22 C19.599 25.374 16.989 26.42 11.449 26.34 C6.528 25.657 2.897 23.105 -0.387 19.461 C-3.531 14.805 -4.016 9.466 -3 4 C-1.473 1.699 -1.473 1.699 0 0 Z " fill="#FCF6F6" transform="translate(13,14)"/>
<path d="M0 0 C3.739 3.128 7.433 6.302 11 9.625 C11.598 10.174 12.196 10.723 12.812 11.289 C14 13 14 13 13.875 15.086 C13 17 13 17 10 19 C6.512 19.445 4.73 19.517 1.824 17.461 C-0.652 14.121 -0.446 11.229 -0.25 7.25 C-0.241 6.901 -0.241 6.901 -0.195 5.137 C-0.148 3.424 -0.077 1.712 0 0 Z " fill="#2A2425" transform="translate(19,19)"/>
<path d="M0 0 C0.99 0 1.98 0 3 0 C3 0.99 3 1.98 3 3 C3.99 3 4.98 3 6 3 C6 5.31 6 7.62 6 10 C6.99 10 7.98 10 9 10 C9 12.97 9 15.94 9 19 C8.34 18.67 7.68 18.34 7 18 C7 17.34 7 16.68 7 16 C6.34 16 5.68 16 5 16 C1.914 13.208 0.193 11.565 -0.324 7.375 C-0.314 4.899 -0.219 2.466 0 0 Z " fill="#3F3738" transform="translate(25,9)"/>
<path d="M0 0 C0 0.33 0 0.66 0 1 C-2.31 1.33 -4.62 1.66 -7 2 C-6.67 2.66 -6.34 3.32 -6 4 C-6.66 4 -7.32 4 -8 4 C-8 5.32 -8 6.64 -8 8 C-8.66 8 -9.32 8 -10 8 C-11.625 5.5 -11.625 5.5 -13 3 C-9.217 -0.948 -5.079 -0.293 0 0 Z " fill="#F1DEDF" transform="translate(30,7)"/>
<path d="M0 0 C1.32 0.66 2.64 1.32 4 2 C0.2 4.914 -1.808 6.131 -6.625 6.062 C-7.034 6.058 -7.034 6.058 -9.102 6.035 C-9.415 6.029 -9.415 6.029 -11 6 C-11 5.67 -11 5.34 -11 5 C-8.69 5 -6.38 5 -4 5 C-4 4.34 -4 3.68 -4 3 C-2 1.375 -2 1.375 0 0 Z " fill="#F7E0E1" transform="translate(33,34)"/>
<path d="M0 0 C0.66 0 1.32 0 2 0 C3.327 3.981 3.069 7.85 3 12 C0.894 10.292 0.062 9.479 -0.293 6.738 C-0.258 5.938 -0.223 5.137 -0.188 4.312 C-0.16 3.504 -0.133 2.696 -0.105 1.863 C-0.071 1.248 -0.036 0.634 0 0 Z " fill="#2B2425" transform="translate(25,10)"/>
</svg>
