<?xml version="1.0" encoding="UTF-8"?>
<!-- Generator: visioncortex VTracer 0.6.12 -->
<svg version="1.1" xmlns="http://www.w3.org/2000/svg" width="64" height="55">
<path d="M0 0 C21.12 0 42.24 0 64 0 C64 18.15 64 36.3 64 55 C42.88 55 21.76 55 0 55 C0 36.85 0 18.7 0 0 Z " fill="#FEFCFC" transform="translate(0,0)"/>
<path d="M0 0 C0.861 -0.013 1.722 -0.026 2.61 -0.039 C3.533 -0.041 4.456 -0.043 5.407 -0.045 C5.885 -0.049 5.885 -0.049 8.306 -0.066 C10.328 -0.076 12.351 -0.08 14.373 -0.08 C17.459 -0.084 20.544 -0.121 23.629 -0.159 C25.597 -0.165 27.564 -0.169 29.532 -0.17 C29.991 -0.178 29.991 -0.178 32.316 -0.214 C37.906 -0.174 41.209 0.49 45.602 4.291 C48.086 8.016 47.982 9.878 47.602 14.291 C45.951 17.829 44.886 19.101 41.602 21.291 C39.459 21.578 39.459 21.578 36.95 21.629 C36.009 21.651 35.068 21.674 34.098 21.697 C33.082 21.708 32.066 21.72 31.02 21.732 C29.973 21.746 28.926 21.759 27.847 21.774 C25.631 21.797 23.414 21.814 21.198 21.826 C17.812 21.853 14.43 21.928 11.045 22.003 C8.891 22.02 6.737 22.034 4.583 22.044 C3.573 22.074 2.563 22.104 1.523 22.135 C-5.321 22.092 -5.321 22.092 -8.389 19.809 C-11.181 16.709 -12.302 14.848 -13.023 10.666 C-12.294 6.731 -11.25 5.063 -8.398 2.291 C-5.506 0.557 -3.356 0.034 0 0 Z " fill="#FCF9F8" transform="translate(13.39794921875,21.70947265625)"/>
<path d="M0 0 C0.861 -0.013 1.722 -0.026 2.61 -0.039 C3.533 -0.041 4.456 -0.043 5.407 -0.045 C5.885 -0.049 5.885 -0.049 8.306 -0.066 C10.328 -0.076 12.351 -0.08 14.373 -0.08 C17.459 -0.084 20.544 -0.121 23.629 -0.159 C25.597 -0.165 27.564 -0.169 29.532 -0.17 C29.991 -0.178 29.991 -0.178 32.316 -0.214 C37.906 -0.174 41.209 0.49 45.602 4.291 C48.086 8.016 47.982 9.878 47.602 14.291 C45.951 17.829 44.886 19.101 41.602 21.291 C39.459 21.578 39.459 21.578 36.95 21.629 C36.009 21.651 35.068 21.674 34.098 21.697 C33.082 21.708 32.066 21.72 31.02 21.732 C29.973 21.746 28.926 21.759 27.847 21.774 C25.631 21.797 23.414 21.814 21.198 21.826 C17.812 21.853 14.43 21.928 11.045 22.003 C8.891 22.02 6.737 22.034 4.583 22.044 C3.573 22.074 2.563 22.104 1.523 22.135 C-5.321 22.092 -5.321 22.092 -8.389 19.809 C-11.181 16.709 -12.302 14.848 -13.023 10.666 C-12.294 6.731 -11.25 5.063 -8.398 2.291 C-5.506 0.557 -3.356 0.034 0 0 Z M-8.005 5.201 C-9.5 7.444 -9.966 8.615 -9.96 11.291 C-9.982 11.951 -10.004 12.611 -10.027 13.291 C-8.996 16.568 -7.303 17.496 -4.398 19.291 C-1.015 19.904 2.327 19.899 5.758 19.892 C6.738 19.901 7.718 19.909 8.728 19.918 C10.795 19.93 12.863 19.931 14.931 19.922 C18.092 19.916 21.25 19.963 24.411 20.013 C26.422 20.018 28.434 20.019 30.446 20.017 C31.389 20.036 32.331 20.054 33.303 20.073 C39.683 19.983 39.683 19.983 42.32 17.996 C44.301 15.709 45.509 13.671 46.227 10.728 C45.264 6.972 43.676 5.648 40.602 3.291 C37.132 2.558 33.728 2.613 30.192 2.662 C29.187 2.659 28.183 2.657 27.148 2.654 C25.029 2.655 22.91 2.669 20.791 2.694 C17.547 2.728 14.305 2.714 11.061 2.695 C9 2.702 6.94 2.711 4.879 2.724 C3.91 2.719 2.94 2.714 1.94 2.709 C-4.765 2.826 -4.765 2.826 -8.005 5.201 Z " fill="#E26745" transform="translate(13.39794921875,21.70947265625)"/>
<path d="M0 0 C0.33 0.33 0.66 0.66 1 1 C1.33 0.34 1.66 -0.32 2 -1 C4.667 -1 7.333 -1 10 -1 C10.656 -1.046 11.312 -1.093 11.988 -1.141 C16.268 -1.342 18.372 -1.41 22.062 1 C22.702 1.66 23.341 2.32 24 3 C24.33 1.68 24.66 0.36 25 -1 C25 1.64 25 4.28 25 7 C23.68 6.01 22.36 5.02 21 4 C20.67 5.32 20.34 6.64 20 8 C21.32 8.33 22.64 8.66 24 9 C14.1 9 4.2 9 -6 9 C-8.058 4.883 -8.34 4.132 -7 0 C-4.316 -1.342 -2.847 -0.73 0 0 Z " fill="#EBE3E1" transform="translate(22,30)"/>
<path d="M0 0 C0.33 0 0.66 0 1 0 C1 1.65 1 3.3 1 5 C4.3 5 7.6 5 11 5 C11.33 3.68 11.66 2.36 12 1 C11.73 4.504 11.509 7.211 9.582 10.199 C5.581 12.99 1.711 12.591 -3.059 12.566 C-3.549 12.57 -3.549 12.57 -6.032 12.585 C-8.106 12.592 -10.18 12.589 -12.253 12.576 C-15.423 12.563 -18.59 12.597 -21.76 12.635 C-23.776 12.636 -25.792 12.634 -27.809 12.629 C-28.755 12.642 -29.701 12.655 -30.675 12.669 C-38.007 12.566 -38.007 12.566 -41.137 9.461 C-41.752 8.649 -42.367 7.837 -43 7 C-39.7 7.33 -36.4 7.66 -33 8 C-32.67 7.34 -32.34 6.68 -32 6 C-31.67 7.32 -31.34 8.64 -31 10 C-22.42 9.67 -13.84 9.34 -5 9 C-5 7.35 -5 5.7 -5 4 C-3.68 4.99 -2.36 5.98 -1 7 C-0.67 4.69 -0.34 2.38 0 0 Z " fill="#E3E1E1" transform="translate(47,29)"/>
<path d="M0 0 C4.667 0 9.333 0 14 0 C12.68 0.33 11.36 0.66 10 1 C10 1.66 10 2.32 10 3 C11.32 3 12.64 3 14 3 C14 4.65 14 6.3 14 8 C12.042 8.195 10.084 8.38 8.125 8.562 C7.034 8.667 5.944 8.771 4.82 8.879 C2 9 2 9 0 8 C0 5.36 0 2.72 0 0 Z " fill="#EEECEB" transform="translate(24,29)"/>
<path d="M0 0 C14.52 0 29.04 0 44 0 C44 0.66 44 1.32 44 2 C29.15 2.33 14.3 2.66 -1 3 C-0.67 2.01 -0.34 1.02 0 0 Z " fill="#EF7A5B" transform="translate(9,22)"/>
<path d="M0 0 C0.33 0 0.66 0 1 0 C1 1.65 1 3.3 1 5 C4.3 5 7.6 5 11 5 C11.33 3.68 11.66 2.36 12 1 C11.25 7.75 11.25 7.75 9 10 C6.758 10.23 6.758 10.23 4.125 10.188 C3.261 10.181 2.398 10.175 1.508 10.168 C-0.792 10.014 -2.793 9.642 -5 9 C-5 7.35 -5 5.7 -5 4 C-3.68 4.99 -2.36 5.98 -1 7 C-0.67 4.69 -0.34 2.38 0 0 Z " fill="#EDE9E7" transform="translate(47,29)"/>
<path d="M0 0 C0.043 2 0.041 4 0 6 C-1 7 -1 7 -3.438 7.188 C-6 7 -6 7 -8 5 C-7.75 2.438 -7.75 2.438 -7 0 C-4.333 -1.333 -2.833 -0.671 0 0 Z " fill="#E66C4B" transform="translate(22,30)"/>
<path d="M0 0 C1.98 0 3.96 0 6 0 C4.68 0.33 3.36 0.66 2 1 C2 1.66 2 2.32 2 3 C3.32 3 4.64 3 6 3 C6 4.65 6 6.3 6 8 C4.02 8 2.04 8 0 8 C0 5.36 0 2.72 0 0 Z " fill="#E77251" transform="translate(32,29)"/>
<path d="M0 0 C0.99 0.66 0.99 0.66 6 4 C6.33 2.68 6.66 1.36 7 0 C7 2.64 7 5.28 7 8 C5.68 7.01 4.36 6.02 3 5 C2.67 5.99 2.34 6.98 2 8 C1.34 8 0.68 8 0 8 C0 5.36 0 2.72 0 0 Z " fill="#E66E4D" transform="translate(40,29)"/>
<path d="M0 0 C0.33 0.99 0.66 1.98 1 3 C0.01 3.33 -0.98 3.66 -2 4 C-2.33 6.64 -2.66 9.28 -3 12 C-3.99 12.33 -4.98 12.66 -6 13 C-6.325 8.86 -6.43 6.66 -4.125 3.125 C-2 1 -2 1 0 0 Z " fill="#EF876A" transform="translate(7,23)"/>
<path d="M0 0 C1.65 0 3.3 0 5 0 C4.01 0.33 3.02 0.66 2 1 C2 1.99 2 2.98 2 4 C2.99 4 3.98 4 5 4 C5.33 3.34 5.66 2.68 6 2 C5.67 3.32 5.34 4.64 5 6 C4.01 6 3.02 6 2 6 C2 6.66 2 7.32 2 8 C1.34 8 0.68 8 0 8 C0 5.36 0 2.72 0 0 Z " fill="#E66F4E" transform="translate(24,29)"/>
<path d="M0 0 C3.889 1.261 5.894 2.453 8 6 C8 6.66 8 7.32 8 8 C5.101 6.701 3.143 5.338 1 3 C0.34 2.34 -0.32 1.68 -1 1 C-0.67 0.67 -0.34 0.34 0 0 Z " fill="#E66746" transform="translate(53,23)"/>
<path d="M0 0 C1.461 2.647 2 3.894 2 7 C-0.64 7.33 -3.28 7.66 -6 8 C-6 7.34 -6 6.68 -6 6 C-4.35 5.67 -2.7 5.34 -1 5 C-0.67 3.35 -0.34 1.7 0 0 Z " fill="#E7DBD8" transform="translate(22,31)"/>
<path d="M0 0 C0.33 0.495 0.33 0.495 2 3 C2.862 4.073 3.737 5.136 4.625 6.188 C5.409 7.116 6.192 8.044 7 9 C6.01 9.33 5.02 9.66 4 10 C2 8.375 2 8.375 0 6 C-0.25 2.75 -0.25 2.75 0 0 Z " fill="#EC5F3B" transform="translate(2,32)"/>
<path d="M0 0 C0.825 0.165 0.825 0.165 5 1 C4.67 1.99 4.34 2.98 4 4 C2.68 4 1.36 4 0 4 C0 2.68 0 1.36 0 0 Z " fill="#F7EDEA" transform="translate(16,31)"/>
<path d="M0 0 C0.66 0 1.32 0 2 0 C1.744 2.343 1.407 4.678 1 7 C0.67 7.165 0.67 7.165 -1 8 C-0.67 5.36 -0.34 2.72 0 0 Z " fill="#DE5A38" transform="translate(59,31)"/>
<path d="M0 0 C-0.688 1.938 -0.688 1.938 -2 4 C-4.625 4.75 -4.625 4.75 -7 5 C-2.25 0 -2.25 0 0 0 Z " fill="#E8E6E7" transform="translate(21,17)"/>
<path d="M0 0 C0.66 0.33 1.32 0.66 2 1 C1.67 1.99 1.34 2.98 1 4 C-0.32 4 -1.64 4 -3 4 C-3 3.01 -3 2.02 -3 1 C-2.01 0.67 -1.02 0.34 0 0 Z " fill="#ECB7A6" transform="translate(29,29)"/>
<path d="M0 0 C0.66 0 1.32 0 2 0 C2 1.32 2 2.64 2 4 C0.68 3.34 -0.64 2.68 -2 2 C-1.34 1.34 -0.68 0.68 0 0 Z " fill="#F6CCBE" transform="translate(44,29)"/>
<path d="M0 0 C0.825 0.165 0.825 0.165 5 1 C4.34 1.66 3.68 2.32 3 3 C2.01 2.67 1.02 2.34 0 2 C0 1.34 0 0.68 0 0 Z " fill="#E87D5F" transform="translate(17,29)"/>
<path d="M0 0 C0.33 0.99 0.66 1.98 1 3 C0.67 3.165 0.67 3.165 -1 4 C-1.66 3.34 -2.32 2.68 -3 2 C-2.01 1.34 -1.02 0.68 0 0 Z " fill="#EF997E" transform="translate(7,23)"/>
<path d="M0 0 C1.32 0.99 2.64 1.98 4 3 C3.01 3.33 2.02 3.66 1 4 C0.67 2.68 0.34 1.36 0 0 Z " fill="#E36644" transform="translate(5,38)"/>
<path d="M0 0 C0.66 0.99 1.32 1.98 2 3 C1.67 3.165 1.67 3.165 0 4 C-0.66 3.34 -1.32 2.68 -2 2 C-1.34 1.34 -0.68 0.68 0 0 Z " fill="#D47B61" transform="translate(57,37)"/>
<path d="M0 0 C0.99 0 1.98 0 3 0 C2.67 0.99 2.34 1.98 2 3 C1.34 3 0.68 3 0 3 C0 2.01 0 1.02 0 0 Z " fill="#6D6D6D" transform="translate(30,9)"/>
</svg>
